<svg width="284" height="140" viewBox="0 0 284 140" fill="none" xmlns="http://www.w3.org/2000/svg">
<rect opacity="0.3" width="284" height="140" rx="8" fill="#F0F0F0"/>
<path d="M201.229 81.322C199.789 80.458 198.637 79.306 197.773 77.866C196.909 76.426 196.513 74.842 196.513 73.114C196.513 71.422 196.909 69.838 197.773 68.398C198.637 66.958 199.789 65.806 201.229 64.942C202.669 64.078 204.253 63.646 205.981 63.646C207.673 63.646 209.257 64.078 210.697 64.942C212.137 65.806 213.289 66.958 214.153 68.398C215.017 69.838 215.449 71.422 215.449 73.114C215.449 74.842 215.017 76.426 214.153 77.866C213.289 79.306 212.137 80.458 210.697 81.322C209.257 82.186 207.673 82.582 205.981 82.582C204.253 82.582 202.669 82.186 201.229 81.322ZM208.465 77.47C209.221 77.038 209.833 76.426 210.301 75.634C210.733 74.878 210.985 74.05 210.985 73.114C210.985 72.214 210.733 71.386 210.301 70.594C209.833 69.838 209.221 69.226 208.465 68.758C207.673 68.326 206.845 68.074 205.945 68.074C205.009 68.074 204.181 68.326 203.425 68.758C202.633 69.226 202.021 69.838 201.589 70.594C201.157 71.386 200.941 72.214 200.941 73.114C200.941 74.05 201.157 74.878 201.589 75.634C202.021 76.426 202.633 77.038 203.425 77.47C204.181 77.902 205.009 78.118 205.945 78.118C206.845 78.118 207.673 77.902 208.465 77.47Z" fill="#969DA0"/>
<path d="M189.943 60.4059C189.439 59.9739 189.223 59.3259 189.223 58.5339C189.223 57.7419 189.439 57.0939 189.943 56.6259C190.411 56.1939 191.059 55.9419 191.923 55.9419C192.751 55.9419 193.399 56.1939 193.903 56.6259C194.371 57.0939 194.623 57.7419 194.623 58.5339C194.623 59.3259 194.371 59.9379 193.867 60.4059C193.363 60.8739 192.715 61.0899 191.923 61.0899C191.059 61.0899 190.411 60.8739 189.943 60.4059ZM189.655 82.0779V64.0779H194.119V82.0779H189.655Z" fill="#969DA0"/>
<path d="M180.922 56.8779H185.386V82.0779H180.922V80.3499C180.094 81.0699 179.194 81.6459 178.186 82.0059C177.178 82.4019 176.134 82.5819 175.054 82.5819C173.218 82.5819 171.634 82.1859 170.266 81.3579C168.898 80.5659 167.818 79.4139 167.098 77.9739C166.378 76.5339 166.018 74.9139 166.018 73.1139C166.018 71.3139 166.378 69.6939 167.098 68.2539C167.818 66.8139 168.898 65.6979 170.266 64.8699C171.634 64.0419 173.218 63.6099 175.054 63.6099C176.134 63.6099 177.142 63.8259 178.15 64.2219C179.158 64.6179 180.058 65.1579 180.922 65.8419V56.8779ZM178.294 77.6499C179.086 77.2179 179.734 76.5699 180.202 75.7779C180.67 74.9859 180.922 74.0859 180.922 73.0779C180.922 71.5659 180.382 70.3419 179.374 69.3699C178.366 68.4339 177.106 67.9299 175.63 67.9299C174.118 67.9299 172.858 68.4339 171.886 69.4059C170.914 70.3779 170.446 71.6019 170.446 73.1139C170.446 74.6259 170.914 75.8859 171.886 76.8579C172.858 77.8299 174.118 78.2979 175.63 78.2979C176.602 78.2979 177.502 78.0819 178.294 77.6499Z" fill="#969DA0"/>
<path d="M158.824 64.0779H163.288V82.0779H158.824V80.5659C158.176 81.1779 157.456 81.6459 156.664 82.0059C155.872 82.3659 155.008 82.5459 154.144 82.5459C153.064 82.5459 151.984 82.3299 150.904 81.8979C149.824 81.4659 148.888 80.6379 148.096 79.4859C147.304 78.3339 146.944 76.7859 146.944 74.8419V64.0779H151.408V74.8419C151.408 76.2099 151.768 77.1819 152.524 77.7579C153.28 78.3339 154.18 78.6219 155.188 78.6219C156.196 78.6219 157.024 78.2979 157.744 77.5779C158.464 76.8579 158.824 75.7419 158.824 74.1579V64.0779Z" fill="#969DA0"/>
<path d="M140.972 77.6139C141.332 77.9379 141.944 78.0819 142.808 78.0819C143.312 78.0819 143.852 78.0459 144.464 77.9739V82.0779C143.312 82.2219 142.376 82.2579 141.656 82.2579C139.712 82.2579 138.272 81.8259 137.336 80.9619C136.4 80.0979 135.932 78.5139 135.932 76.2099V68.0739H132.548V64.0779H135.932V59.6499L140.396 58.1379V64.0779H144.392V68.0739H140.396V75.9219C140.396 76.7499 140.576 77.3259 140.972 77.6139Z" fill="#969DA0"/>
<path d="M122.123 70.2699C122.699 70.5219 123.599 70.7739 124.823 71.0259C126.191 71.3139 127.379 71.6379 128.315 71.9979C129.251 72.3579 130.043 72.9339 130.727 73.7259C131.411 74.5179 131.771 75.5619 131.771 76.8579C131.771 78.0459 131.411 79.0539 130.691 79.9179C129.971 80.7819 129.035 81.4659 127.883 81.8979C126.695 82.3299 125.399 82.5459 124.031 82.5459C122.123 82.5459 120.503 82.1859 119.135 81.4659C117.767 80.7459 116.795 79.7379 116.147 78.3699L119.819 76.4619C120.467 78.1179 121.871 78.9459 124.031 78.9459C124.967 78.9459 125.759 78.7659 126.443 78.4059C127.091 78.0459 127.451 77.5419 127.451 76.8579C127.451 76.2819 127.127 75.8859 126.515 75.5979C125.903 75.3099 124.931 75.0219 123.563 74.6619C122.123 74.3379 120.971 74.0139 120.107 73.6539C119.207 73.3299 118.451 72.8259 117.803 72.1059C117.155 71.3859 116.831 70.4499 116.831 69.2619C116.831 68.1099 117.155 67.1379 117.803 66.2739C118.451 65.4099 119.315 64.7619 120.431 64.2939C121.511 63.8619 122.735 63.6099 124.067 63.6099C125.615 63.6099 127.019 63.9339 128.243 64.5819C129.467 65.2299 130.439 66.1659 131.123 67.3539L127.487 69.1899C126.839 67.8579 125.723 67.1739 124.067 67.1739C123.203 67.1739 122.555 67.3539 122.051 67.7139C121.547 68.0739 121.295 68.5419 121.295 69.1179C121.295 69.6219 121.547 70.0179 122.123 70.2699Z" fill="#969DA0"/>
<mask id="mask0_4273_14430" style="mask-type:alpha" maskUnits="userSpaceOnUse" x="65" y="49" width="41" height="41">
<circle cx="85.1721" cy="69.5967" r="20" fill="#D9D9D9"/>
</mask>
<g mask="url(#mask0_4273_14430)">
<rect x="59.8469" y="74.7461" width="20.8878" height="20.8878" rx="2.19817" transform="rotate(-15 59.8469 74.7461)" fill="#969DA0"/>
<rect x="84.9158" y="74.7461" width="20.8878" height="20.8878" rx="2.19817" transform="rotate(-15 84.9158 74.7461)" fill="#969DA0"/>
<rect x="84.9158" y="49.6775" width="20.8878" height="20.8878" rx="2.19817" transform="rotate(-15 84.9158 49.6775)" fill="#969DA0"/>
<rect x="59.8469" y="49.6775" width="20.8878" height="20.8878" rx="2.19817" transform="rotate(-15 59.8469 49.6775)" fill="#969DA0"/>
</g>
</svg>
