<svg width="284" height="140" viewBox="0 0 284 140" fill="none" xmlns="http://www.w3.org/2000/svg">
<rect opacity="0.3" width="284" height="140" rx="8" fill="#F0F0F0"/>
<path d="M241.272 70.7864H249.627C249.551 68.9257 248.336 67.1029 245.45 67.1029C242.829 67.1029 241.386 69.0776 241.272 70.7864ZM250.12 75.6471L254.335 76.9003C253.386 80.1281 250.424 82.8242 245.829 82.8242C240.703 82.8242 236.184 79.1407 236.184 72.837C236.184 66.8751 240.589 63.0017 245.374 63.0017C251.146 63.0017 254.601 66.6852 254.601 72.6851C254.601 73.4066 254.525 74.1661 254.525 74.2421H241.158C241.272 76.7104 243.361 78.4952 245.867 78.4952C248.222 78.4952 249.513 77.318 250.12 75.6471Z" fill="#969DA0"/>
<path d="M219.324 77.0521L223.653 76.1028C223.767 77.5838 224.868 78.9509 227.071 78.9509C228.742 78.9509 229.539 78.0775 229.539 77.0901C229.539 76.2547 228.969 75.5712 227.526 75.2674L225.058 74.6978C221.451 73.9003 219.818 71.7358 219.818 69.1155C219.818 65.7738 222.78 63.0017 226.805 63.0017C232.121 63.0017 233.906 66.3814 234.134 68.394L229.919 69.3434C229.767 68.2421 228.969 66.8371 226.843 66.8371C225.514 66.8371 224.45 67.6346 224.45 68.6978C224.45 69.6092 225.134 70.1788 226.159 70.3687L228.818 70.9383C232.501 71.6978 234.362 73.9383 234.362 76.6724C234.362 79.7103 232.007 82.8242 227.109 82.8242C221.488 82.8242 219.552 79.1787 219.324 77.0521Z" fill="#969DA0"/>
<path d="M216.271 82.2546H211.221V63.5714H216.271V82.2546ZM210.613 57.4575C210.613 55.7107 212.018 54.3057 213.727 54.3057C215.474 54.3057 216.841 55.7107 216.841 57.4575C216.841 59.1284 215.474 60.5334 213.727 60.5334C212.018 60.5334 210.613 59.1284 210.613 57.4575Z" fill="#969DA0"/>
<path d="M208.427 63.4954V68.5839C207.858 68.47 207.364 68.432 206.908 68.432C204.326 68.432 202.086 69.6852 202.086 73.7104V82.2546H197.035V63.5713H201.934V66.3434C203.073 63.8751 205.655 63.4194 207.25 63.4194C207.668 63.4194 208.048 63.4574 208.427 63.4954Z" fill="#969DA0"/>
<path d="M179.593 89.4697H174.543V63.5713H179.441V65.8497C180.277 64.4067 182.365 63.1536 185.175 63.1536C190.644 63.1536 193.796 67.3307 193.796 72.875C193.796 78.5331 190.264 82.7103 184.986 82.7103C182.403 82.7103 180.505 81.685 179.593 80.4318V89.4697ZM188.821 72.9129C188.821 69.6092 186.77 67.6725 184.188 67.6725C181.606 67.6725 179.517 69.6092 179.517 72.9129C179.517 76.2167 181.606 78.1913 184.188 78.1913C186.77 78.1913 188.821 76.2547 188.821 72.9129Z" fill="#969DA0"/>
<path d="M171.749 63.4954V68.5839C171.18 68.47 170.686 68.432 170.23 68.432C167.648 68.432 165.408 69.6852 165.408 73.7104V82.2546H160.357V63.5713H165.256V66.3434C166.395 63.8751 168.977 63.4194 170.572 63.4194C170.99 63.4194 171.37 63.4574 171.749 63.4954Z" fill="#969DA0"/>
<path d="M143.811 70.7864H152.165C152.089 68.9257 150.874 67.1029 147.988 67.1029C145.368 67.1029 143.925 69.0776 143.811 70.7864ZM152.659 75.6471L156.874 76.9003C155.925 80.1281 152.963 82.8242 148.368 82.8242C143.241 82.8242 138.722 79.1407 138.722 72.837C138.722 66.8751 143.127 63.0017 147.912 63.0017C153.684 63.0017 157.14 66.6852 157.14 72.6851C157.14 73.4066 157.064 74.1661 157.064 74.2421H143.697C143.811 76.7104 145.9 78.4952 148.406 78.4952C150.76 78.4952 152.051 77.318 152.659 75.6471Z" fill="#969DA0"/>
<path d="M133.023 57.989V63.5712H136.782V68.0522H133.023V75.8748C133.023 77.5077 133.782 78.0394 135.225 78.0394C135.833 78.0394 136.516 77.9634 136.782 77.8875V82.0646C136.326 82.2545 135.415 82.5203 133.934 82.5203C130.289 82.5203 128.01 80.3558 128.01 76.7482V68.0522H124.63V63.5712H125.58C127.554 63.5712 128.466 62.2801 128.466 60.6092V57.989H133.023Z" fill="#969DA0"/>
<path d="M110.428 71.5079V82.2546H105.378V63.5713H110.277V65.8877C111.416 63.951 113.656 63.0776 115.669 63.0776C120.302 63.0776 122.428 66.3814 122.428 70.4826V82.2546H117.378V71.356C117.378 69.2674 116.352 67.6345 113.922 67.6345C111.72 67.6345 110.428 69.3434 110.428 71.5079Z" fill="#969DA0"/>
<path d="M88.8312 70.7864H97.1855C97.1096 68.9257 95.8944 67.1029 93.0084 67.1029C90.3882 67.1029 88.9451 69.0776 88.8312 70.7864ZM97.6792 75.6471L101.894 76.9003C100.945 80.1281 97.983 82.8242 93.3881 82.8242C88.2616 82.8242 83.7427 79.1407 83.7427 72.837C83.7427 66.8751 88.1477 63.0017 92.9324 63.0017C98.7045 63.0017 102.16 66.6852 102.16 72.6851C102.16 73.4066 102.084 74.1661 102.084 74.2421H88.7173C88.8312 76.7104 90.9198 78.4952 93.4261 78.4952C95.7805 78.4952 97.0716 77.318 97.6792 75.6471Z" fill="#969DA0"/>
<g clip-path="url(#clip0_4273_14431)">
<path fill-rule="evenodd" clip-rule="evenodd" d="M27.7559 78.0544C27.7559 79.0932 28.8081 79.8013 29.7704 79.4101L42.6293 74.1829C43.1809 73.9587 43.5416 73.4226 43.5416 72.8272L43.5416 66.9241C43.5416 66.3287 43.9024 65.7927 44.4539 65.5685L57.3592 60.3224C57.9107 60.0982 58.2715 59.5622 58.2715 58.9668L58.2715 52.0462C58.2715 51.238 57.6163 50.5828 56.8081 50.5828L43.9492 50.5828C43.141 50.5828 42.4858 51.238 42.4858 52.0462L42.4858 62.9799C42.4858 63.7881 41.8306 64.4433 41.0224 64.4433L29.2193 64.4433C28.4111 64.4433 27.7559 65.0985 27.7559 65.9067L27.7559 78.0544Z" fill="#969DA0"/>
<path fill-rule="evenodd" clip-rule="evenodd" d="M69.4372 60.5979C69.4372 59.5591 68.385 58.8511 67.4227 59.2423L54.5638 64.4695C54.0122 64.6937 53.6515 65.2297 53.6515 65.8251V71.7279C53.6515 72.3234 53.2908 72.8594 52.7392 73.0836L39.8339 78.3297C39.2824 78.5539 38.9216 79.0899 38.9216 79.6853V86.6059C38.9216 87.4141 39.5768 88.0693 40.385 88.0693H53.2439C54.0521 88.0693 54.7073 87.4141 54.7073 86.6059V75.6725C54.7073 74.8642 55.3625 74.2091 56.1707 74.2091H67.9738C68.782 74.2091 69.4372 73.5539 69.4372 72.7457V60.5979Z" fill="#969DA0"/>
</g>
<defs>
<clipPath id="clip0_4273_14431">
<rect width="43.2484" height="43.2484" fill="white" transform="translate(26.9727 48.8757)"/>
</clipPath>
</defs>
</svg>
