<svg width="80" height="80" viewBox="0 0 80 80" fill="none" xmlns="http://www.w3.org/2000/svg">
<g clip-path="url(#clip0_3187_23319)">
<circle cx="40" cy="40" r="40" fill="white"/>
<path d="M40.0047 47.7841C44.3047 47.7841 47.7906 44.2991 47.7906 40.0002C47.7906 35.7013 44.3047 32.2163 40.0047 32.2163C35.7046 32.2163 32.2188 35.7013 32.2188 40.0002C32.2188 44.2991 35.7046 47.7841 40.0047 47.7841Z" stroke="black" stroke-width="2" stroke-linecap="round" stroke-linejoin="round"/>
<path d="M51.2598 32.3297C51.6504 32.8887 51.9922 33.48 52.2817 34.0973L56.4829 36.4325C57.0075 38.7814 57.013 41.2164 56.4991 43.5677L52.2817 45.9029C51.9922 46.5202 51.6504 47.1115 51.2598 47.6704L51.341 52.4867C49.5605 54.1087 47.4532 55.3308 45.1609 56.0705L41.0246 53.5894C40.3442 53.6381 39.6612 53.6381 38.9808 53.5894L34.8608 56.0543C32.5612 55.328 30.447 54.1107 28.6645 52.4867L28.7456 47.6867C28.3584 47.12 28.0167 46.5235 27.7237 45.9029L23.5226 43.5677C22.998 41.2188 22.9925 38.7837 23.5064 36.4325L27.7237 34.0973C28.0132 33.48 28.3551 32.8887 28.7456 32.3297L28.6645 27.5135C30.445 25.8914 32.5522 24.6694 34.8446 23.9296L38.9808 26.4107C39.6612 26.3621 40.3442 26.3621 41.0246 26.4107L45.1447 23.9458C47.4443 24.6722 49.5585 25.8895 51.341 27.5135L51.2598 32.3297Z" stroke="black" stroke-width="2" stroke-linecap="round" stroke-linejoin="round"/>
</g>
<defs>
<clipPath id="clip0_3187_23319">
<rect width="80" height="80" fill="white"/>
</clipPath>
</defs>
</svg>
