<svg width="80" height="80" viewBox="0 0 80 80" fill="none" xmlns="http://www.w3.org/2000/svg">
<g clip-path="url(#clip0_3187_23322)">
<circle cx="40" cy="40" r="40" fill="white"/>
<path d="M55.4935 26.0623H24.5122C22.8011 26.0623 21.4141 27.449 21.4141 29.1596V50.8408C21.4141 52.5514 22.8011 53.9381 24.5122 53.9381H55.4935C57.2045 53.9381 58.5916 52.5514 58.5916 50.8408V29.1596C58.5916 27.449 57.2045 26.0623 55.4935 26.0623Z" stroke="#0A0F16" stroke-width="2" stroke-linecap="round" stroke-linejoin="round"/>
<path d="M21.4141 38.4514H32.4124C32.7692 38.4495 33.1154 38.5722 33.3912 38.7985C33.667 39.0247 33.855 39.3402 33.9227 39.6904C34.2186 41.0832 34.9839 42.3323 36.0907 43.2285C37.1975 44.1247 38.5785 44.6137 40.0028 44.6137C41.4271 44.6137 42.8082 44.1247 43.915 43.2285C45.0217 42.3323 45.7871 41.0832 46.0829 39.6904C46.1506 39.3402 46.3387 39.0247 46.6145 38.7985C46.8903 38.5722 47.2365 38.4495 47.5932 38.4514H58.5916" stroke="#0A0F16" stroke-width="2" stroke-linecap="round" stroke-linejoin="round"/>
<path d="M21.4141 32.257H58.5916" stroke="#0A0F16" stroke-width="2" stroke-linecap="round" stroke-linejoin="round"/>
</g>
<defs>
<clipPath id="clip0_3187_23322">
<rect width="80" height="80" fill="white"/>
</clipPath>
</defs>
</svg>
