<svg width="80" height="80" viewBox="0 0 80 80" fill="none" xmlns="http://www.w3.org/2000/svg">
<g clip-path="url(#clip0_3187_23323)">
<circle cx="40" cy="40" r="40" fill="white"/>
<path d="M53.5469 53.5884V26.5064C53.5469 25.0107 52.3336 23.7982 50.8369 23.7982H29.1574C27.6607 23.7982 26.4474 25.0107 26.4474 26.5064L26.4474 53.5884C26.4474 55.0841 27.6607 56.2966 29.1574 56.2966H50.8369C52.3336 56.2966 53.5469 55.0841 53.5469 53.5884Z" stroke="#0A0F16" stroke-width="2" stroke-linecap="round" stroke-linejoin="round"/>
<path d="M40.0012 31.9228C41.1237 31.9228 42.0337 31.0135 42.0337 29.8917C42.0337 28.7699 41.1237 27.8605 40.0012 27.8605C38.8787 27.8605 37.9688 28.7699 37.9688 29.8917C37.9688 31.0135 38.8787 31.9228 40.0012 31.9228Z" fill="#0A0F16"/>
</g>
<defs>
<clipPath id="clip0_3187_23323">
<rect width="80" height="80" fill="white"/>
</clipPath>
</defs>
</svg>
